<svg width="37" height="36" viewBox="0 0 37 36" fill="none" xmlns="http://www.w3.org/2000/svg">
    <path
        d="M18.3787 0.00114865C8.2256 0.00114865 0 8.23364 0 18.3798C0 26.5043 5.26549 33.3906 12.563 35.82C13.4853 35.9935 13.8185 35.4249 13.8185 34.9332C13.8185 34.4967 13.8081 33.3423 13.8012 31.81C8.68622 32.9173 7.60877 29.3392 7.60877 29.3392C6.77139 27.2211 5.56299 26.6525 5.56299 26.6525C3.89972 25.5165 5.69509 25.5406 5.69509 25.5406C7.53755 25.6658 8.50702 27.4302 8.50702 27.4302C10.1462 30.2421 12.8076 29.4288 13.861 28.9556C14.0218 27.7713 14.5008 26.9569 15.0223 26.5032C10.9422 26.0426 6.65193 24.4632 6.65193 17.4207C6.65193 15.4094 7.3641 13.7714 8.54148 12.4849C8.33817 12.0242 7.71559 10.1519 8.70345 7.62025C8.70345 7.62025 10.2415 7.12977 13.7576 9.50521C15.229 9.09744 16.7912 8.89412 18.3522 8.88379C19.9144 8.89412 21.4755 9.09859 22.9469 9.50521C26.4423 7.12977 27.9792 7.62025 27.9792 7.62025C28.9659 10.1519 28.3433 12.0231 28.1642 12.4849C29.33 13.7714 30.0422 15.4105 30.0422 17.4207C30.0422 24.4792 25.7462 26.0357 21.6616 26.4848C22.3002 27.035 22.8987 28.1665 22.8987 29.8837C22.8987 32.3419 22.8757 34.3222 22.8757 34.9206C22.8757 35.3985 23.1973 35.9728 24.1438 35.7879C31.4953 33.3837 36.755 26.4917 36.755 18.3787C36.755 8.23249 28.5294 0 18.3764 0L18.3787 0.00114865Z"
        fill="black" />
</svg>